HIERARCHY
ROOT Hips
{
	OFFSET 0.00 0.00 0.00
	CHANNELS 6 Xposition Yposition Zposition Yrotation Xrotation Zrotation
	JOINT Spine
	{
		OFFSET	0.0000	9.2263	1.5771
		CHANNELS 3 Xrotation Yrotation Zrotation
		JOINT Spine1
		{
			OFFSET	0.0000	16.2540	-0.1656
			CHANNELS 3 Xrotation Yrotation Zrotation
			JOINT Spine2
			{
				OFFSET	0.0000	13.6396	-1.2923
				CHANNELS 3 Xrotation Yrotation Zrotation
				JOINT Neck
				{
					OFFSET	0.0000	13.8774	-4.3542
					CHANNELS 3 Xrotation Yrotation Zrotation
					JOINT Neck1
					{
						OFFSET	0.0000	4.3400	0.9269
						CHANNELS 3 Xrotation Yrotation Zrotation
						JOINT Head
						{
							OFFSET	0.0000	4.0266	0.8585
							CHANNELS 3 Xrotation Yrotation Zrotation
							End Site
							{
								OFFSET 0.0000 23.0297 0.1231
							}
						}
					}
				}
				JOINT LeftShoulder
				{
					OFFSET	6.1442	10.1870	-3.7932
					CHANNELS 3 Zrotation Xrotation Yrotation
					JOINT LeftArm
					{
						OFFSET	12.3191	-1.1130	-1.7935
						CHANNELS 3 Zrotation Xrotation Yrotation
						JOINT LeftForeArm
						{
							OFFSET	27.6870	0.0000	0.0000
							CHANNELS 3 Xrotation Zrotation Yrotation
							JOINT LeftHand
							{
								OFFSET	27.8738	0.0000	0.0000
								CHANNELS 3 Zrotation Yrotation Xrotation
								JOINT LeftHandThumb1
								{
									OFFSET	2.3785	-1.0029	2.6209
									CHANNELS 3 Zrotation Xrotation Yrotation
									JOINT LeftHandThumb2
									{
										OFFSET	3.3624	-1.0029	2.8398
										CHANNELS 3 Zrotation Xrotation Yrotation
										JOINT LeftHandThumb3
										{
											OFFSET	4.5018	-1.3445	2.1783
											CHANNELS 3 Zrotation Xrotation Yrotation
											End Site
											{
												OFFSET 2.6000 -1.0000 1.0000
											}
										}
									}
								}
								JOINT LeftHandMiddle1
								{
									OFFSET	10.4639	0.6148	0.4298
									CHANNELS 3 Zrotation Xrotation Yrotation
									JOINT LeftHandMiddle2
									{
										OFFSET	5.7921	0.0000	0.0000
										CHANNELS 3 Zrotation Xrotation Yrotation
										JOINT LeftHandMiddle3
										{
											OFFSET	3.7132	0.0000	0.0000
											CHANNELS 3 Zrotation Xrotation Yrotation
											End Site
											{
												OFFSET 2.3000 0.0000 0.0000
											}
										}
									}
								}
								JOINT LeftHandIndex1
								{
									OFFSET	10.3945	0.6148	2.7055
									CHANNELS 3 Zrotation Xrotation Yrotation
									JOINT LeftHandIndex2
									{
										OFFSET	5.5493	0.0000	0.0000
										CHANNELS 3 Zrotation Xrotation Yrotation
										JOINT LeftHandIndex3
										{
											OFFSET	3.3911	0.0000	0.0000
											CHANNELS 3 Zrotation Xrotation Yrotation
											End Site
											{
												OFFSET 2.5000 0.0000 0.0000
											}
										}
									}
								}
								JOINT LeftHandRing1
								{
									OFFSET	10.3252	0.3211	-1.8755
									CHANNELS 3 Zrotation Xrotation Yrotation
									JOINT LeftHandRing2
									{
										OFFSET	5.4452	0.0000	0.0000
										CHANNELS 3 Zrotation Xrotation Yrotation
										JOINT LeftHandRing3
										{
											OFFSET	3.7132	0.0000	0.0000
											CHANNELS 3 Zrotation Xrotation Yrotation
											End Site
											{
												OFFSET 2.0000 0.0000 0.0000
											}
										}
									}
								}
								JOINT LeftHandPinky1
								{
									OFFSET	10.0130	-0.0783	-3.9671
									CHANNELS 3 Zrotation Xrotation Yrotation
									JOINT LeftHandPinky2
									{
										OFFSET	3.6763	0.0000	0.0000
										CHANNELS 3 Zrotation Xrotation Yrotation
										JOINT LeftHandPinky3
										{
											OFFSET	2.8113	0.0000	0.0000
											CHANNELS 3 Zrotation Xrotation Yrotation
											End Site
											{
												OFFSET 2.9000 0.0000 0.0000
											}
										}
									}
								}
							}
						}
					}
				}
				JOINT RightShoulder
				{
					OFFSET	-6.1402	10.1870	-3.7932
					CHANNELS 3 Zrotation Xrotation Yrotation
					JOINT RightArm
					{
						OFFSET	-12.3231	-1.1130	-1.7935
						CHANNELS 3 Zrotation Xrotation Yrotation
						JOINT RightForeArm
						{
							OFFSET	-27.6870	0.0000	0.0000
							CHANNELS 3 Xrotation Zrotation Yrotation
							JOINT RightHand
							{
								OFFSET	-27.8738	0.0000	0.0000
								CHANNELS 3 Zrotation Yrotation Xrotation
								JOINT RightHandThumb1
								{
									OFFSET	-2.5178	-0.9367	2.5137
									CHANNELS 3 Zrotation Xrotation Yrotation
									JOINT RightHandThumb2
									{
										OFFSET	-3.2638	-1.0870	2.9669
										CHANNELS 3 Zrotation Xrotation Yrotation
										JOINT RightHandThumb3
										{
											OFFSET	-4.4165	-1.3703	2.1350
											CHANNELS 3 Zrotation Xrotation Yrotation
											End Site
											{
												OFFSET -2.6000 -1.0000 1.0000
											}
										}
									}
								}
								JOINT RightHandIndex1
								{
									OFFSET	-10.4665	0.4896	2.7120
									CHANNELS 3 Zrotation Xrotation Yrotation
									JOINT RightHandIndex2
									{
										OFFSET	-5.3768	0.0000	0.0000
										CHANNELS 3 Zrotation Xrotation Yrotation
										JOINT RightHandIndex3
										{
											OFFSET	-3.3855	0.0000	0.0000
											CHANNELS 3 Zrotation Xrotation Yrotation
											End Site
											{
												OFFSET -2.6000 0.0000 0.0000
											}
										}
									}
								}
								JOINT RightHandMiddle1
								{
									OFFSET	-10.7596	0.4896	0.4278
									CHANNELS 3 Zrotation Xrotation Yrotation
									JOINT RightHandMiddle2
									{
										OFFSET	-5.6168	0.0000	0.0000
										CHANNELS 3 Zrotation Xrotation Yrotation
										JOINT RightHandMiddle3
										{
											OFFSET	-3.7364	0.0000	0.0000
											CHANNELS 3 Zrotation Xrotation Yrotation
											End Site
											{
												OFFSET -2.3000 0.0000 0.0000
											}
										}
									}
								}
								JOINT RightHandRing1
								{
									OFFSET	-10.4702	0.3879	-1.9363
									CHANNELS 3 Zrotation Xrotation Yrotation
									JOINT RightHandRing2
									{
										OFFSET	-5.4013	0.0000	0.0000
										CHANNELS 3 Zrotation Xrotation Yrotation
										JOINT RightHandRing3
										{
											OFFSET	-3.3916	0.0000	0.0000
											CHANNELS 3 Zrotation Xrotation Yrotation
											End Site
											{
												OFFSET -2.2000 0.0000 0.0000
											}
										}
									}
								}
								JOINT RightHandPinky1
								{
									OFFSET	-9.9715	-0.1191	-3.9540
									CHANNELS 3 Zrotation Xrotation Yrotation
									JOINT RightHandPinky2
									{
										OFFSET	-3.6528	0.0000	0.0000
										CHANNELS 3 Zrotation Xrotation Yrotation
										JOINT RightHandPinky3
										{
											OFFSET	-2.7820	0.0000	0.0000
											CHANNELS 3 Zrotation Xrotation Yrotation
											End Site
											{
												OFFSET -2.9000 0.0000 0.0000
											}
										}
									}
								}
							}
						}
					}
				}
			}
		}
	}
	JOINT LeftUpLeg
	{
		OFFSET	9.6338	-3.2733	0.0000
		CHANNELS 3 Xrotation Yrotation Zrotation
		JOINT LeftLeg
		{
			OFFSET	0.0000	-41.7300	-1.7300
			CHANNELS 3 Xrotation Yrotation Zrotation
			JOINT LeftFoot
			{
				OFFSET	0.0126	-39.1900	-0.8477
				CHANNELS 3 Xrotation Yrotation Zrotation
				JOINT LeftToeBase
				{
					OFFSET	-0.1833	-12.1931	8.2823
					CHANNELS 3 Xrotation Yrotation Zrotation
					End Site
					{
						OFFSET 0.0000 0.0000 10.1681
					}
				}
			}
		}
	}
	JOINT RightUpLeg
	{
		OFFSET	-9.6338	-3.2733	0.0000
		CHANNELS 3 Xrotation Yrotation Zrotation
		JOINT RightLeg
		{
			OFFSET	0.0000	-41.7300	-1.7300
			CHANNELS 3 Xrotation Yrotation Zrotation
			JOINT RightFoot
			{
				OFFSET	0.0126	-39.1900	-0.8477
				CHANNELS 3 Xrotation Yrotation Zrotation
				JOINT RightToeBase
				{
					OFFSET	-0.1833	-12.1931	8.2823
					CHANNELS 3 Xrotation Yrotation Zrotation
					End Site
					{
						OFFSET 0.0032 0.0000 10.1681
					}
				}
			}
		}
	}
}
MOTION
Frames: 4
Frame Time: 0.0333333
-0.9267 86.3746 5.1766 55.9688 7.4643 3.6162 1.8063 0.9943 2.6897 4.1484 3.1098 0.5685 4.1138 3.1572 0.5447 12.0735 -2.2663 -3.8413 -0.0000 0.0000 -0.0000 6.3648 -16.5780 4.6343 -8.2159 3.3148 -13.8801 -34.6003 -27.1281 -48.6066 0.0000 -0.0000 -104.5262 -16.1818 -34.1221 -20.0749 -23.4759 10.9896 29.5986 -0.5413 -1.4887 54.3647 8.0088 0.8033 27.0444 -99.5151 1.0629 1.4458 -95.4590 -1.1118 1.0107 -47.7220 -0.3323 0.7512 -99.5312 1.0625 1.4464 -95.4429 -1.1116 1.0107 -47.7220 -0.3323 0.7512 -99.5312 1.0625 1.4464 -95.4429 -1.1116 1.0107 -47.7220 -0.3323 0.7512 -99.4382 1.0681 5.5299 -95.5424 2.9549 1.4017 -47.7220 -0.3323 0.7512 -21.0914 -1.1621 11.3096 32.8420 -29.4528 28.5576 0.0000 0.0000 54.0750 -1.8060 -3.0007 45.8147 25.3590 38.1514 -25.0308 58.7503 39.8532 -70.4341 -8.1455 28.3893 -19.7826 94.7275 -0.3142 -2.5054 97.8088 -2.5953 -2.2638 48.9065 -0.7830 -1.7218 94.7275 -0.3142 -2.5054 97.8088 -2.5953 -2.2638 48.9065 -0.7830 -1.7218 94.7275 -0.3142 -2.5054 97.8088 -2.5953 -2.2638 48.9065 -0.7830 -1.7218 94.7275 -0.3142 -2.5054 97.8088 -2.5953 -2.2638 48.9065 -0.7830 -1.7218 -49.9816 -5.6687 -9.6251 40.2545 -8.0736 0.5246 1.0388 -19.1620 -0.5954 -0.0742 0.0000 0.0000 -13.0107 -3.4153 -4.8447 54.8208 -9.9409 2.1541 -0.8483 9.2239 -0.3213 -46.9428 -0.1143 0.3911 
-0.0550 86.9607 4.5256 48.7165 8.2705 3.2374 1.8624 0.7279 2.2193 4.1283 2.3255 0.3760 4.1024 2.3672 0.3609 12.1647 -1.6950 -3.6650 -0.0000 0.0000 -0.0000 6.4437 -13.1986 3.9887 -8.3800 3.3057 -13.5595 -36.9332 -28.2703 -48.4769 -0.0000 -0.0000 -105.5183 -15.2914 -32.2631 -19.3893 -23.4759 10.9895 29.5986 -0.5413 -1.4887 54.3647 8.0088 0.8033 27.0444 -99.5151 1.0629 1.4458 -95.4590 -1.1118 1.0107 -47.7220 -0.3323 0.7512 -99.5312 1.0624 1.4464 -95.4429 -1.1116 1.0107 -47.7220 -0.3323 0.7512 -99.5312 1.0624 1.4464 -95.4429 -1.1116 1.0107 -47.7220 -0.3323 0.7512 -99.4382 1.0681 5.5298 -95.5424 2.9549 1.4017 -47.7220 -0.3323 0.7512 -14.1892 -0.1221 11.5127 38.3499 -33.8144 29.8409 -0.0000 -0.0000 61.8601 -1.4526 -2.9355 44.5795 25.3590 38.1514 -25.0307 58.7503 39.8532 -70.4341 -8.1455 28.3893 -19.7826 94.7275 -0.3142 -2.5054 97.8088 -2.5953 -2.2638 48.9065 -0.7830 -1.7218 94.7275 -0.3142 -2.5054 97.8088 -2.5953 -2.2638 48.9065 -0.7830 -1.7218 94.7275 -0.3142 -2.5054 97.8088 -2.5953 -2.2638 48.9065 -0.7830 -1.7218 94.7275 -0.3142 -2.5054 97.8088 -2.5953 -2.2638 48.9065 -0.7830 -1.7218 -49.4217 -5.1512 -7.4591 40.1850 -7.3360 0.9039 -0.2968 -14.4520 -1.4054 -0.0703 -0.0000 -0.0000 -14.4347 -2.4638 -7.2340 54.0226 -10.0519 1.7148 0.5527 10.0967 -1.0851 -46.7942 -0.9701 3.2423 
0.8917 87.7181 3.7392 38.1515 8.7415 2.7781 1.9115 0.3336 1.7101 4.0750 1.3184 0.2704 4.0593 1.3530 0.2628 12.0910 -0.8986 -3.7555 -0.0000 0.0000 -0.0000 6.3013 -8.4544 2.5057 -8.9932 3.4270 -12.9472 -39.6974 -28.7158 -47.8649 -0.0000 -0.0000 -105.6470 -14.6284 -32.2401 -18.4923 -23.4759 10.9895 29.5986 -0.5413 -1.4887 54.3647 8.0088 0.8033 27.0444 -99.5151 1.0629 1.4458 -95.4590 -1.1118 1.0107 -47.7220 -0.3323 0.7512 -99.5312 1.0625 1.4464 -95.4429 -1.1115 1.0107 -47.7220 -0.3323 0.7512 -99.5312 1.0625 1.4464 -95.4429 -1.1115 1.0107 -47.7220 -0.3323 0.7512 -99.4382 1.0681 5.5299 -95.5424 2.9549 1.4017 -47.7220 -0.3323 0.7512 -7.8720 0.8621 12.6186 45.0085 -38.7182 32.5839 0.0000 -0.0000 71.2670 0.6425 -3.3857 39.6804 25.3590 38.1514 -25.0307 58.7503 39.8532 -70.4341 -8.1455 28.3893 -19.7826 94.7275 -0.3142 -2.5054 97.8088 -2.5953 -2.2638 48.9065 -0.7830 -1.7218 94.7275 -0.3142 -2.5054 97.8088 -2.5953 -2.2638 48.9065 -0.7830 -1.7218 94.7275 -0.3142 -2.5054 97.8088 -2.5953 -2.2638 48.9065 -0.7830 -1.7218 94.7275 -0.3142 -2.5054 97.8088 -2.5953 -2.2638 48.9065 -0.7830 -1.7218 -47.7791 -4.0829 -3.7556 39.6489 -7.4385 0.6422 -1.6708 -7.2746 -2.8854 -0.0627 0.0000 0.0000 -16.7655 -3.2848 -11.5405 52.6905 -10.6486 0.2749 1.4617 9.8898 4.2855 -43.7754 -1.7194 5.4009 
1.6516 88.4416 2.9736 26.4275 9.1374 2.0169 1.9051 0.0378 1.2577 3.9558 0.4298 0.1846 3.9487 0.4566 0.1815 11.9771 -0.0171 -3.8999 -0.0000 0.0000 -0.0000 5.9242 -3.0177 0.4709 -9.6653 3.5348 -12.2432 -41.9077 -28.8019 -47.0442 -0.0000 -0.0000 -105.4033 -14.0222 -33.0122 -17.4169 -23.4759 10.9895 29.5986 -0.5413 -1.4887 54.3647 8.0088 0.8033 27.0444 -99.5151 1.0629 1.4458 -95.4590 -1.1118 1.0107 -47.7220 -0.3323 0.7512 -99.5312 1.0625 1.4464 -95.4429 -1.1116 1.0107 -47.7220 -0.3323 0.7512 -99.5312 1.0625 1.4464 -95.4429 -1.1116 1.0107 -47.7220 -0.3323 0.7512 -99.4382 1.0681 5.5299 -95.5424 2.9549 1.4017 -47.7220 -0.3323 0.7512 -1.9465 1.9636 14.2323 51.2002 -41.5073 35.9598 0.0000 -0.0001 78.2205 2.4841 -3.0744 32.6817 25.3590 38.1514 -25.0308 58.7503 39.8532 -70.4341 -8.1455 28.3893 -19.7826 94.7275 -0.3142 -2.5054 97.8088 -2.5953 -2.2638 48.9065 -0.7831 -1.7218 94.7275 -0.3142 -2.5054 97.8088 -2.5953 -2.2638 48.9065 -0.7831 -1.7218 94.7275 -0.3142 -2.5054 97.8088 -2.5953 -2.2638 48.9065 -0.7831 -1.7218 94.7275 -0.3142 -2.5054 97.8088 -2.5953 -2.2638 48.9065 -0.7831 -1.7218 -46.0377 -2.7077 0.8420 39.3652 -7.6131 -0.2956 -3.0708 0.2533 -3.6196 -0.0647 -0.0000 0.0000 -20.3004 -5.5660 -16.2961 51.2810 -10.4470 -0.6303 1.4455 6.5982 11.7373 -36.6130 -1.8801 6.8419 
